<?xml version="1.0" encoding="UTF-8"?>
<svg id="Layer_2" data-name="Layer 2" xmlns="http://www.w3.org/2000/svg" viewBox="0 0 1117.48 1016.43">
  <defs>
    <style>
      .cls-1 {
        letter-spacing: 0em;
      }

      .cls-2, .cls-3 {
        fill: currentColor;
        transition: fill 0.2s ease-in-out;
      }

      .cls-4 {
        letter-spacing: -.02em;
      }

      .cls-3 {
        font-family: FiraSans-Medium, 'Fira Sans';
        font-size: 279.72px;
        font-weight: 500;
      }

      .logo-container:hover .cls-2,
      .logo-container:hover .cls-3 {
        fill: #ffffff;
      }
    </style>
  </defs>
  <g id="STACKED-LIGHT_MODE" data-name="STACKED-LIGHT MODE" class="logo-container">
    <g id="ICON_copy_3" data-name="ICON copy 3">
      <g>
        <path class="cls-2" d="M546.38.85c12.8-1.85,26.6-.86,38.25,4.84,62.2,41.11,135.65,72.85,197.08,114.09,17.62,11.83,30.42,26.6,32.33,48.84.94,10.91,1.45,52.76-1.36,61.33-5.34,16.31-28.33,21.56-40.21,8.99-14.65-15.5,2.93-59.4-11.75-74.5l-191.41-111.29c-13.78-6.07-14.69-3.43-27.04,2.78-61.47,30.91-118.4,69.68-179.46,102.42-2.08,1.12-6.61,6.79-7.92,8.75-4.63,6.91-5.05,15.42-1.49,23.04,1.11,2.38,6.69,10.57,16.31,18.03,9.62,7.47,79.88,43.77,79.88,43.77,0,0,8.04,5.6,11.22,9.33,32.8,38.48,78.67,72.23,109.62,110.4,9.39,11.58,16.25,24.24,3.26,36.99-25.33,24.86-55.03-28.55-73.63-41.14-3.8-.67-22.98,24.51-31.51,27.32-20.76,6.85-38.31-10.61-30.84-30.85,4.62-12.53,22.7-21.74,27.17-30.44.67-1.3,1.13-2.08,0-3.35-12-9.96-20.06-24.09-32.52-33.55-34.22-25.96-113.6-51.84-126.21-93.64-8.65-28.69-1.2-62.67,24.3-79.87,65.1-34.43,127.98-79.48,193.23-112.86,7.03-3.6,14.88-8.28,22.72-9.42Z"/>
        <path class="cls-2" d="M794.78,442.88c-65.92,38.17-133.04,85.08-200.61,119.86-22.67,11.67-37.56,16.13-62.07,4.5-61.39-39.16-127.24-71.73-188.76-110.57-18.29-11.55-32.09-22.94-34.82-46.35-1.61-13.78-2.31-66.54.21-78.91,4.31-21.18,37.08-24.95,45.67-5.85,7.53,16.75.59,54.94,2.95,74.84.62,5.21,2.18,7.48,5.88,11.03l184.72,109.54c13.76,9.11,26.71-2.74,38.87-9.54,51.46-28.76,113.11-63.02,161.72-95.32,15-9.97,20.67-18.96,10.78-36.34-28.71-21.71-67.83-35.99-96.42-56.61-23.64-17.06-12.01-47.51,14.98-45.36,1.83.15,8.91,2.25,10.53,3.14,33.32,18.24,63.31,34.57,93.3,55.33,37.69,26.08,43.46,72.24,13.08,106.64Z"/>
        <path class="cls-2" d="M576.19,316.01c-37.73-38.63-74.58-78.18-113-116.16-14.21-20.09-.54-43.95,24.53-38.05,17.67,4.16,54.07,54.3,70.29,66.79,2.05.4,2.78-1.39,4.04-2.36,18.43-14.15,45.25-52.51,63.02-62.12,25-13.52,46.78,14.46,28.94,35.71l-63.24,63.56,86.21,87.95c17.85,24.27-9.57,53.48-38.08,29.63-19.24-16.1-44.11-45.89-62.72-64.94Z"/>
      </g>
    </g>
  </g>
  <g id="Dark_mode-_horz1" data-name="Dark mode- horz1">
    <text class="cls-3" transform="translate(0 917.4)"><tspan x="0" y="0">H</tspan><tspan class="cls-1" x="187.97" y="0">E</tspan><tspan class="cls-4" x="334.83" y="0">Y</tspan><tspan x="489.79" y="0">SPEX</tspan></text>
  </g>
</svg>
